<?xml version="1.0" encoding="UTF-8" standalone="no"?>
<svg
   version="1.1"
   width="1024"
   height="1024"
   id="svg27"
   sodipodi:docname="goldenGoat.svg"
   inkscape:version="1.4 (86a8ad7, 2024-10-11)"
   xmlns:inkscape="http://www.inkscape.org/namespaces/inkscape"
   xmlns:sodipodi="http://sodipodi.sourceforge.net/DTD/sodipodi-0.dtd"
   xmlns="http://www.w3.org/2000/svg"
   xmlns:svg="http://www.w3.org/2000/svg">
  <defs
     id="defs27" />
  <sodipodi:namedview
     id="namedview27"
     pagecolor="#ffffff"
     bordercolor="#000000"
     borderopacity="0.25"
     inkscape:showpageshadow="2"
     inkscape:pageopacity="0.0"
     inkscape:pagecheckerboard="0"
     inkscape:deskcolor="#d1d1d1"
     inkscape:zoom="1.1376953"
     inkscape:cx="511.56052"
     inkscape:cy="512"
     inkscape:window-width="2256"
     inkscape:window-height="1425"
     inkscape:window-x="-9"
     inkscape:window-y="-9"
     inkscape:window-maximized="1"
     inkscape:current-layer="svg27" />
  <path
     d="m 0,0 c 337.92,0 675.84,0 1024,0 0,337.92 0,675.84 0,1024 -337.92,0 -675.84,0 -1024,0 C 0,686.08 0,348.16 0,0 Z"
     fill="#e8e1d6"
     id="path1"
     style="display:none" />
  <path
     d="m 207.00581,180.6813 c 4.97043,0.006 9.93795,-0.0443 14.90803,-0.0995 28.86594,-0.12798 55.79989,4.31607 83.0871,14.12792 1.81273,0.64401 3.62546,1.28804 5.49313,1.95157 26.60596,9.80485 52.12918,22.09142 72.10192,42.56349 5.75477,5.61088 11.81844,9.6054 18.5139,14.02155 5.173,4.62848 5.173,4.62848 8.71243,8.71243 0,1.43755 0,2.8751 0,4.35621 2.15632,0.71877 4.31265,1.43755 6.53432,2.17811 2.09659,3.61481 4.17781,7.24063 6.13444,10.93308 3.65261,6.11181 8.27458,11.12254 13.09415,16.33578 2.55247,3.22464 2.55247,3.22464 2.55247,7.58083 2.15633,0.71879 4.31266,1.43756 6.53433,2.17811 6.84155,10.06215 12.71491,21.13065 15.79128,32.94388 0.80861,3.09971 0.80861,3.09971 1.63355,6.26204 1.43756,0.71879 2.87511,1.43756 4.35623,2.17811 6.35387,7.12665 9.5433,15.25138 12.79637,24.09531 0.55944,1.51774 1.11888,3.0355 1.69526,4.59923 10.94798,30.53213 17.58791,60.98827 20.35809,93.27945 0.32007,-2.29953 0.64014,-4.59905 0.96992,-6.96826 6.78959,-45.88879 20.32605,-89.30179 41.63927,-130.52474 0.79266,-1.54915 1.58531,-3.09831 2.40199,-4.69441 4.98513,-9.34194 10.41245,-15.99494 18.1539,-23.34872 3.25034,-4.16339 6.42588,-8.38613 9.52921,-12.66022 11.07263,-14.94071 22.02143,-28.91654 36.7045,-40.44813 4.30437,-3.73722 4.30437,-3.73722 8.83154,-9.77596 6.04995,-7.38453 12.92596,-12.40098 20.89622,-17.56948 1.42649,-0.9327 2.85298,-1.86539 4.32271,-2.82633 63.03221,-40.23606 139.79183,-48.46336 212.31753,-32.89389 39.18088,9.40838 89.36661,31.33831 112.52611,66.07757 0,2.15633 0,4.31265 0,6.53433 -9.58461,-1.34869 -16.91417,-4.92577 -25.45662,-9.39308 -2.74849,-1.39464 -5.49949,-2.78434 -8.25298,-4.16905 -4.30057,-2.16459 -8.60059,-4.33034 -12.89848,-6.50028 -48.62774,-21.94392 -111.16562,-20.50648 -160.72045,-2.53545 -27.53209,10.69482 -51.68214,26.93099 -73.64722,46.55703 -1.3505,1.17082 -2.70102,2.34162 -4.09247,3.54794 -32.67568,30.24966 -59.47032,80.57977 -61.8463,125.21558 -0.62651,21.16502 1.12695,38.36649 8.89111,58.11973 2.50807,6.73479 3.83775,12.93026 4.7731,20.03687 -2.26302,1.47687 -4.52604,2.95372 -6.85763,4.47533 -40.61493,26.91081 -66.64234,57.16907 -79.4073,105.01708 -4.1357,28.62237 -1.34475,57.34241 4.58593,85.44813 11.48363,54.46027 11.48363,54.46027 -0.38286,73.61319 -12.89718,16.58753 -27.47781,27.17257 -48.4884,30.51903 -15.94759,0.99671 -28.37319,-5.10397 -41.52017,-13.74079 -11.13795,-9.91975 -18.59051,-19.92814 -20.41122,-35.01137 -0.35369,-19.24488 2.24627,-36.68935 6.25353,-55.51618 10.22033,-48.74604 9.29703,-92.35327 -16.33579,-135.99554 -5.35901,-7.71742 -11.13866,-14.80478 -17.42485,-21.78107 -1.80677,-2.0721 -1.80677,-2.0721 -3.65003,-4.18604 -10.29643,-11.10737 -22.61821,-18.59827 -35.55589,-26.30744 -2.0384,-1.22418 -4.0768,-2.44833 -6.17697,-3.7096 -1.55547,-0.93216 -3.11096,-1.86432 -4.71357,-2.82473 1.60232,-9.44995 4.51309,-18.32484 7.62339,-27.36247 12.74944,-37.26477 8.68176,-71.42117 -7.21499,-107.13561 -2.25767,-4.56614 -4.57171,-9.10484 -6.94271,-13.61316 -1.75202,-3.36505 -1.75202,-3.36505 -3.53942,-6.79808 -7.44031,-13.52 -15.85712,-24.82316 -26.49463,-35.99833 -4.81566,-5.12194 -4.81566,-5.12194 -10.05672,-11.62223 -32.62335,-37.92955 -88.43843,-59.45686 -137.06544,-63.63624 -46.84755,-2.93606 -93.336324,7.36552 -133.768506,31.39856 -7.078836,3.88827 -7.078836,3.88827 -13.613167,3.88827 2.017613,-14.45399 16.416884,-24.71721 27.447533,-33.16509 27.325503,-19.55519 57.46847,-33.21526 90.17023,-40.89054 1.46474,-0.38624 2.9295,-0.77248 4.43863,-1.17041 16.46358,-3.91676 32.94102,-3.92167 49.76143,-3.87337 z"
     fill="#bb9252"
     id="path2"
     style="stroke-width:2.17811" />
  <path
     d="m 801.8815,405.71384 c 3.82017,2.89164 3.82017,2.89164 6.53433,6.53433 0.37633,18.44065 -12.34441,34.5053 -23.95919,47.91834 -35.76466,31.45569 -76.22508,37.54148 -121.97396,41.38402 -0.6598,-2.34444 -1.31962,-4.68888 -1.99944,-7.10438 -5.14744,-18.02743 -10.71266,-35.54097 -17.78219,-52.92118 -1.99943,-5.31763 -1.99943,-5.31763 -1.99943,-9.67385 2.73752,-0.24426 5.47504,-0.48854 8.29551,-0.74022 34.81363,-3.55817 68.41794,-10.79082 102.44706,-18.75585 1.88802,-0.43419 3.77602,-0.86838 5.72127,-1.31573 3.54187,-0.8157 7.07978,-1.64895 10.6124,-2.5038 11.04204,-2.53346 22.82076,-4.90099 34.10364,-2.82168 z"
     fill="#8a592b"
     id="path3"
     style="stroke-width:2.17811" />
  <path
     d="m 243.33331,410.47845 c 4.46112,1.00119 8.92226,2.00233 13.38343,3.0034 4.56903,1.04037 9.13794,2.08123 13.70676,3.12252 30.37895,6.86551 60.64361,12.99904 91.48049,17.42486 -1.42317,12.00903 -5.38325,22.54513 -9.66536,33.76065 -1.36026,3.60682 -2.7188,7.21429 -4.07545,10.82246 -0.63701,1.69026 -1.274,3.3805 -1.93029,5.12196 -2.17726,5.89402 -4.17854,11.83751 -6.10999,17.81623 -47.55279,-3.66905 -92.5033,-10.65546 -126.33018,-47.91834 -10.05196,-12.88194 -18.02194,-24.66559 -17.42486,-41.38402 6.76267,-14.427 35.0093,-4.55293 46.96545,-1.76972 z"
     fill="#8a592b"
     id="path4"
     style="stroke-width:2.17811" />
  <path
     d="m 359.72587,510.26296 c 32.49192,13.39146 54.81471,39.1814 69.55476,70.55874 17.01243,41.56516 8.32099,86.62235 -2.84174,128.58487 -1.87284,7.65422 -2.79436,15.18613 -3.54793,23.02327 -1.43756,0 -2.8751,0 -4.35621,0 -0.66543,-2.19844 -1.33087,-4.39689 -2.01646,-6.66195 -7.97205,-25.4614 -18.20746,-49.60247 -29.1662,-73.91098 -20.58635,-45.75409 -33.78286,-88.72466 -29.80433,-139.41585 0.71877,-0.71877 1.43756,-1.43754 2.17811,-2.1781 z"
     fill="#a8793b"
     id="path5"
     style="stroke-width:2.17811" />
  <path
     d="m 645.05782,512.44106 c 12.28929,24.57856 -1.36906,69.5741 -9.10379,93.79471 -5.34532,16.01189 -12.09798,31.23268 -19.25334,46.50427 -10.03249,21.43124 -19.84198,42.79976 -26.97134,65.40766 -1.06278,3.34118 -2.25653,6.64032 -3.48039,9.92592 -2.15633,1.07816 -2.15633,1.07816 -4.35622,2.17811 -27.40393,-114.30107 -27.40393,-114.30107 2.85876,-166.35289 11.99181,-18.65394 35.67738,-51.45778 60.30632,-51.45778 z"
     fill="#a8783a"
     id="path6"
     style="stroke-width:2.17811" />
  <path
     d="m 571.00221,771.63576 c 1.07817,2.15632 1.07817,2.15632 2.17811,4.35621 -10.35802,30.0558 -26.92874,58.4278 -55.16735,74.82136 -9.49312,4.62081 -15.00698,6.77032 -25.42261,3.59047 -4.89221,-2.68859 -4.89221,-2.68859 -9.66534,-5.9898 -1.56951,-1.06693 -3.13902,-2.13385 -4.75611,-3.23312 -22.29122,-16.54455 -40.59489,-39.23217 -46.56552,-67.01082 0.71876,-1.43754 1.43754,-2.87509 2.1781,-4.35621 1.35612,1.38561 1.35612,1.38561 2.73964,2.79921 18.94725,18.03555 43.47677,30.90921 70.03975,30.46797 25.67693,-2.71508 47.36091,-16.65682 64.44133,-35.44527 z"
     fill="#8e5c2c"
     id="path7"
     style="stroke-width:2.17811" />
  <path
     d="m 113.59982,203.14994 c -2.42025,1.18764 -4.8405,2.37531 -7.33409,3.59897 -22.900838,11.50707 -42.783155,23.01261 -58.009104,44.31936 1.339281,-0.81143 2.678563,-1.62286 4.058419,-2.45888 1.760435,-1.03042 3.520881,-2.06085 5.334664,-3.12251 1.743594,-1.03605 3.487176,-2.07209 5.283613,-3.13954 4.926262,-2.1696 4.926262,-2.1696 11.460582,0.008 -5.300547,2.92083 -10.610322,5.82196 -15.927403,8.71242 -1.503526,0.83109 -3.007064,1.66216 -4.556162,2.51845 -11.447807,6.19398 -11.447807,6.19398 -18.722352,6.19398 1.869467,-13.39269 14.065679,-22.26156 23.959167,-30.49348 41.121946,-30.58086 41.121946,-30.58086 54.452666,-26.13728 z"
     fill="#92612d"
     id="path17"
     style="stroke-width:2.17811" />
  <path
     d="m 168.05248,185.72508 c 0,0.71877 0,1.43755 0,2.17811 8.62531,0.71877 17.25062,1.43754 26.1373,2.17811 0,0.71876 0,1.43754 0,2.1781 -2.78528,0.13201 -5.57053,0.26392 -8.44018,0.39989 -3.72095,0.18401 -7.44187,0.36837 -11.16279,0.55304 -1.82783,0.0857 -3.65564,0.17126 -5.53886,0.25948 -11.31998,0.5704 -22.43799,1.59721 -33.66706,3.1438 0,-2.15633 0,-4.31265 0,-6.53431 11.38087,-3.19463 20.86936,-4.84799 32.67159,-4.35622 z"
     fill="#af8343"
     id="path18"
     style="stroke-width:2.17811" />
  <path
     d="m 871.58092,192.2594 c 0,1.43755 0,2.87509 0,4.35621 -1.27857,-0.14302 -2.55712,-0.28603 -3.87444,-0.43338 -14.40003,-1.53471 -28.76037,-2.38082 -43.22711,-2.9699 -2.18722,-0.094 -4.37442,-0.18814 -6.62792,-0.28504 -5.32311,-0.22813 -10.64639,-0.45068 -15.96995,-0.66789 0,-0.71878 0,-1.43755 0,-2.1781 6.85051,-0.43563 13.70274,-0.83345 20.55588,-1.2252 1.91346,-0.1221 3.82693,-0.24426 5.79836,-0.3701 14.76083,-0.81702 29.19917,-0.94194 43.34518,3.7734 z"
     fill="#ac7f3f"
     id="path19"
     style="stroke-width:2.17811" />
  <path
     d="m 932.5679,240.17774 c 11.93456,3.36616 22.03,9.05097 32.67159,15.24675 0.71879,-1.43755 1.43755,-2.87511 2.17811,-4.35622 0.71879,2.87511 1.43755,5.7502 2.17811,8.71244 -9.5821,-1.27999 -16.37699,-4.87809 -24.63983,-9.80149 -2.32759,-1.37016 -4.65518,-2.74033 -7.05332,-4.15201 -2.64066,-1.71832 -2.64066,-1.71832 -5.33466,-3.47136 0,-0.71879 0,-1.43755 0,-2.17811 z"
     fill="#906232"
     id="path22"
     style="stroke-width:2.17811" />
  <path
     d="m 503.48089,449.27598 c 2.69651,7.78989 1.63197,13.80255 0,21.78106 -1.43753,-0.71877 -2.87508,-1.43755 -4.3562,-2.1781 -0.54452,-12.25186 -0.54452,-12.25186 4.3562,-19.60296 z"
     fill="#e4d0ae"
     id="path25"
     style="stroke-width:2.17811" />
  <path
     d="m 571.00221,771.63576 c 0.71878,1.43755 1.43754,2.87508 2.17811,4.35621 -2.04198,5.71752 -2.04198,5.71752 -4.35622,10.89052 -2.8751,-0.71877 -5.7502,-1.43754 -8.71243,-2.17809 3.59387,-4.31266 7.18775,-8.62532 10.89054,-13.06864 z"
     fill="#966a39"
     id="path26"
     style="stroke-width:2.17811" />
  <path
     d="m 503.48089,436.20734 c 0.71879,0 1.43756,0 2.17811,0 0.80423,12.06336 0.80423,12.06336 -3.26714,17.1526 -1.61725,1.21291 -1.61725,1.21291 -3.26717,2.45036 -0.27226,-7.35111 -0.27226,-7.35111 0,-15.24674 1.43756,-1.43755 2.87509,-2.87511 4.3562,-4.35622 z"
     fill="#eeebe4"
     id="path27"
     style="stroke-width:2.17811" />
</svg>
