<?xml version="1.0" encoding="UTF-8"?>
<svg version="1.1" xmlns="http://www.w3.org/2000/svg" width="1024" height="1024">
<path d="M0 0 C337.92 0 675.84 0 1024 0 C1024 337.92 1024 675.84 1024 1024 C686.08 1024 348.16 1024 0 1024 C0 686.08 0 348.16 0 0 Z " fill="#E8E1D6" transform="translate(0,0)"/>
<path d="M0 0 C2.28198802 0.00314423 4.56265518 -0.02031433 6.84448242 -0.0456543 C20.0972533 -0.10443921 32.46301985 1.93591576 44.9909668 6.44067383 C45.82321777 6.73635254 46.65546875 7.03203125 47.51293945 7.33666992 C59.72811383 11.83821795 71.44619287 17.47915555 80.6159668 26.87817383 C83.25806284 29.45421747 86.04198266 31.28815238 89.1159668 33.31567383 C91.4909668 35.44067383 91.4909668 35.44067383 93.1159668 37.31567383 C93.1159668 37.97567383 93.1159668 38.63567383 93.1159668 39.31567383 C94.1059668 39.64567383 95.0959668 39.97567383 96.1159668 40.31567383 C97.07854285 41.97528771 98.03406024 43.63994551 98.93237305 45.33520508 C100.60934462 48.14122683 102.73135376 50.44172358 104.9440918 52.83520508 C106.1159668 54.31567383 106.1159668 54.31567383 106.1159668 56.31567383 C107.1059668 56.64567383 108.0959668 56.97567383 109.1159668 57.31567383 C112.25702343 61.9353449 114.95356492 67.01705061 116.3659668 72.44067383 C116.7372168 73.86379883 116.7372168 73.86379883 117.1159668 75.31567383 C117.7759668 75.64567383 118.4359668 75.97567383 119.1159668 76.31567383 C122.0331188 79.58761458 123.49742815 83.31780259 124.9909668 87.37817383 C125.2478125 88.07499268 125.5046582 88.77181152 125.76928711 89.48974609 C130.79565475 103.50748593 133.84413894 117.49033713 135.1159668 132.31567383 C135.26291992 131.25993164 135.40987305 130.20418945 135.5612793 129.11645508 C138.6784773 108.04824675 144.89325648 88.1167174 154.6784668 69.19067383 C155.04238525 68.47943359 155.40630371 67.76819336 155.78125 67.03540039 C158.06999509 62.74637729 160.56175828 59.69189381 164.1159668 56.31567383 C165.60824058 54.40419239 167.06617795 52.46547327 168.4909668 50.50317383 C173.57456677 43.64368049 178.60131976 37.22717711 185.3425293 31.93286133 C187.31872391 30.21704739 187.31872391 30.21704739 189.3972168 27.44458008 C192.17483732 24.05423379 195.33171207 21.75111025 198.9909668 19.37817383 C199.64589111 18.94996338 200.30081543 18.52175293 200.97558594 18.08056641 C229.91457703 -0.39238106 265.15602112 -4.16965886 298.45361328 2.97851562 C316.44211598 7.29804127 339.48310491 17.366381 350.1159668 33.31567383 C350.1159668 34.30567383 350.1159668 35.29567383 350.1159668 36.31567383 C345.71553429 35.69647601 342.35042741 34.05418795 338.4284668 32.00317383 C337.16659766 31.36287821 335.90357215 30.72485644 334.6394043 30.08911133 C332.66494484 29.09531466 330.690751 28.10098833 328.7175293 27.10473633 C306.3918348 17.02996444 277.67979777 17.68991669 254.9284668 25.94067383 C242.28808236 30.85082069 231.20045037 38.30507869 221.1159668 47.31567383 C220.49592773 47.85321289 219.87588867 48.39075195 219.23706055 48.94458008 C204.235177 62.83263469 191.93338257 85.93991331 190.8425293 106.43286133 C190.55489388 116.15002521 191.35992802 124.04746121 194.92456055 133.11645508 C196.07605265 136.20849453 196.68652848 139.05292986 197.1159668 142.31567383 C196.07698242 142.9937207 195.03799805 143.67176758 193.9675293 144.37036133 C175.32063377 156.72549696 163.37107336 170.6175002 157.51049805 192.58520508 C155.61173437 205.72615372 156.89310708 218.91193164 159.6159668 231.81567383 C164.88826201 256.81916226 164.88826201 256.81916226 159.44018555 265.61254883 C153.51890782 273.22811546 146.82473088 278.08786665 137.1784668 279.62426758 C129.85670273 280.08187783 124.1519269 277.28096429 118.1159668 273.31567383 C113.00237062 268.76137723 109.58079152 264.16637969 108.74487305 257.24145508 C108.58248899 248.40585184 109.77616925 240.39684712 111.6159668 231.75317383 C116.30825935 209.37316966 115.88435574 189.35247177 104.1159668 169.31567383 C101.65556168 165.77249711 99.00204493 162.51858689 96.1159668 159.31567383 C95.28645508 158.3643457 95.28645508 158.3643457 94.44018555 157.39379883 C89.71294685 152.29424777 84.05584139 148.85506813 78.1159668 145.31567383 C77.18010742 144.75364258 76.24424805 144.19161133 75.2800293 143.61254883 C74.56588867 143.18458008 73.85174805 142.75661133 73.1159668 142.31567383 C73.85160791 137.97706315 75.18798592 133.90247827 76.6159668 129.75317383 C82.46941601 112.64437799 80.60189626 96.96268158 73.3034668 80.56567383 C72.26693941 78.46929719 71.20452761 76.38550942 70.1159668 74.31567383 C69.3115918 72.77073242 69.3115918 72.77073242 68.4909668 71.19458008 C65.0750148 64.98735249 61.21073948 59.79790795 56.3269043 54.66723633 C54.1159668 52.31567383 54.1159668 52.31567383 51.7097168 49.33129883 C36.73187146 31.91729792 11.10636359 22.03379451 -11.21899414 20.11499023 C-32.72737372 18.76699571 -54.0710396 23.49660428 -72.6340332 34.53051758 C-75.8840332 36.31567383 -75.8840332 36.31567383 -78.8840332 36.31567383 C-77.95772191 29.67964047 -71.34680437 24.96764979 -66.2824707 21.08911133 C-53.73694703 12.11103515 -39.89787643 5.83950133 -24.8840332 2.31567383 C-24.21154541 2.13834717 -23.53905762 1.96102051 -22.84619141 1.77832031 C-15.28752796 -0.01991333 -7.72249424 -0.02216984 0 0 Z " fill="#BB9252" transform="translate(376.884033203125,345.684326171875)"/>
<path d="M0 0 C1.75389099 1.32759094 1.75389099 1.32759094 3 3 C3.17278307 11.46637062 -2.6674959 18.84188052 -8 25 C-24.42007749 39.4417549 -42.99603742 42.23583318 -64 44 C-64.30292969 42.92363281 -64.60585938 41.84726562 -64.91796875 40.73828125 C-67.28123231 32.46162823 -69.83630424 24.42090127 -73.08203125 16.44140625 C-74 14 -74 14 -74 12 C-72.74316406 11.88785156 -71.48632812 11.77570313 -70.19140625 11.66015625 C-54.20797271 10.02654339 -38.77975024 6.70592729 -23.15649414 3.04907227 C-22.28968018 2.84973083 -21.42286621 2.6503894 -20.52978516 2.44500732 C-18.90365888 2.07050004 -17.27935367 1.68794797 -15.6574707 1.29547119 C-10.58791336 0.13232422 -5.18013184 -0.95464223 0 0 Z " fill="#8A592B" transform="translate(650,449)"/>
<path d="M0 0 C2.0481704 0.45966522 4.09634768 0.91929976 6.14453125 1.37890625 C8.24223631 1.85655651 10.33989296 2.33441944 12.4375 2.8125 C26.38491615 5.96454807 40.2798553 8.78053933 54.4375 10.8125 C53.78411148 16.32602506 51.96598653 21.16329698 50 26.3125 C49.37548118 27.96844064 48.75176451 29.62468405 48.12890625 31.28125 C47.8364502 32.05726563 47.54399414 32.83328125 47.24267578 33.6328125 C46.24306989 36.33884082 45.32425008 39.06758517 44.4375 41.8125 C22.6053312 40.12798748 1.96789874 36.92041736 -13.5625 19.8125 C-18.17749435 13.89822023 -21.83663122 8.48817427 -21.5625 0.8125 C-18.45766861 -5.81114029 -5.48923546 -1.27781278 0 0 Z " fill="#8A592B" transform="translate(393.5625,451.1875)"/>
<path d="M0 0 C14.91750895 6.1482141 25.16622299 17.98874202 31.93359375 32.39453125 C39.74424339 51.47769357 35.7538751 72.16409779 30.62890625 91.4296875 C29.76905807 94.94384962 29.34597501 98.40185995 29 102 C28.34 102 27.68 102 27 102 C26.69449219 100.99066406 26.38898438 99.98132813 26.07421875 98.94140625 C22.41413099 87.25171686 17.7149069 76.16819622 12.68359375 65.0078125 C3.23210341 44.0014506 -2.82660116 24.27304778 -1 1 C-0.67 0.67 -0.34 0.34 0 0 Z " fill="#A8793B" transform="translate(447,497)"/>
<path d="M0 0 C5.64218191 11.28436382 -0.62856344 31.94246673 -4.1796875 43.0625 C-6.63379673 50.4137804 -9.73404359 57.40186353 -13.01916504 64.41326904 C-17.62523045 74.2526648 -22.12890659 84.06325862 -25.40209961 94.44287109 C-25.89003668 95.97685524 -26.43810757 97.49153494 -27 99 C-27.99 99.495 -27.99 99.495 -29 100 C-41.58153865 47.52274647 -41.58153865 47.52274647 -27.6875 23.625 C-22.1818872 15.06071343 -11.30750212 0 0 0 Z " fill="#A8783A" transform="translate(578,498)"/>
<path d="M0 0 C0.495 0.99 0.495 0.99 1 2 C-3.75551203 15.79904508 -11.36337006 28.82504369 -24.328125 36.3515625 C-28.68654652 38.47304582 -31.21804103 39.45991271 -36 38 C-38.24609375 36.765625 -38.24609375 36.765625 -40.4375 35.25 C-41.15808594 34.76015625 -41.87867188 34.2703125 -42.62109375 33.765625 C-52.85531793 26.16978045 -61.25879428 15.75357579 -64 3 C-63.67 2.34 -63.34 1.68 -63 1 C-62.37738281 1.63615234 -62.37738281 1.63615234 -61.7421875 2.28515625 C-53.04323936 10.56553575 -41.78137926 16.47601959 -29.5859375 16.2734375 C-17.7972903 15.02690381 -7.841864 8.6260504 0 0 Z " fill="#8E5C2C" transform="translate(544,617)"/>
<path d="M0 0 C3.93792318 2.56821077 6.74612583 5.61725165 8.875 9.875 C9.27831428 15.11808569 8.73551133 18.43627553 5.875 22.875 C1.22012434 27.07574145 -1.65767407 28.23523452 -7.80859375 28.15625 C-12.43275033 27.59480097 -15.11965745 24.74806063 -18.5 21.8125 C-21.02509929 17.24789743 -21.09987287 12.96034428 -20.125 7.875 C-15.74852383 -0.07324543 -8.71882278 -3.1387762 0 0 Z " fill="#AA7D45" transform="translate(461.125,677.125)"/>
<path d="M0 0 C3.526875 -0.12375 3.526875 -0.12375 7.125 -0.25 C7.85348145 -0.28641602 8.58196289 -0.32283203 9.33251953 -0.36035156 C14.41489855 -0.44581603 17.13212945 0.79359137 21 4 C23.76055304 6.90645964 24.43128699 8.88624618 24.4375 12.875 C24.28302904 17.64253547 23.26186275 20.38550344 20 24 C15.83963137 27.18057167 12.24056959 27.37460984 7.1875 27.1875 C4.815625 27.125625 2.44375 27.06375 0 27 C0 18.09 0 9.18 0 0 Z " fill="#A97A40" transform="translate(521,677)"/>
<path d="M0 0 C6 0 6 0 8.1953125 1.9765625 C8.83210937 2.85054687 9.46890625 3.72453125 10.125 4.625 C10.76695312 5.48351562 11.40890625 6.34203125 12.0703125 7.2265625 C14.08628614 10.12401449 16.04202792 13.06304187 18 16 C18.33 10.72 18.66 5.44 19 0 C20.98 0 22.96 0 25 0 C25 8.91 25 17.82 25 27 C19 27 19 27 17.21728516 25.53125 C16.74597168 24.8609375 16.2746582 24.190625 15.7890625 23.5 C15.26699219 22.778125 14.74492188 22.05625 14.20703125 21.3125 C13.68496094 20.549375 13.16289063 19.78625 12.625 19 C12.07972656 18.236875 11.53445313 17.47375 10.97265625 16.6875 C9.63076038 14.80413737 8.31299195 12.90362587 7 11 C6.67 16.28 6.34 21.56 6 27 C4.02 27 2.04 27 0 27 C0 18.09 0 9.18 0 0 Z " fill="#AE824A" transform="translate(599,677)"/>
<path d="M0 0 C2.74118674 1.70562731 4.778117 3.246144 6.8125 5.75 C6.8125 6.74 6.8125 7.73 6.8125 8.75 C4.0625 9 4.0625 9 0.8125 8.75 C-0.52083333 7.41666667 -1.85416667 6.08333333 -3.1875 4.75 C-6.14441709 3.99984805 -6.14441709 3.99984805 -9.1875 4.75 C-12.82275215 7.35789828 -14.02147068 8.8202358 -14.8125 13.25 C-14.02147068 17.6797642 -12.82275215 19.14210172 -9.1875 21.75 C-5.04525694 22.32991403 -3.70574511 22.09549674 -0.1875 19.75 C0.1425 18.76 0.4725 17.77 0.8125 16.75 C-1.1675 16.75 -3.1475 16.75 -5.1875 16.75 C-5.5175 15.1 -5.8475 13.45 -6.1875 11.75 C-1.5675 11.75 3.0525 11.75 7.8125 11.75 C7.44551967 19.94589393 7.44551967 19.94589393 4.5 23.6875 C0.1489678 27.02666425 -2.48065642 28.22486553 -8.1640625 28.06640625 C-12.56128802 27.37880921 -15.32220583 24.50143967 -18.5625 21.6875 C-21.08759929 17.12289743 -21.16237287 12.83534428 -20.1875 7.75 C-15.81836126 -0.18491971 -8.67400098 -3.40156901 0 0 Z " fill="#A87842" transform="translate(419.1875,677.25)"/>
<path d="M0 0 C6.6 0 13.2 0 20 0 C20 1.32 20 2.64 20 4 C15.05 4 10.1 4 5 4 C5 6.31 5 8.62 5 11 C8.96 11 12.92 11 17 11 C17 12.65 17 14.3 17 16 C13.04 16 9.08 16 5 16 C5 18.31 5 20.62 5 23 C9.62 23 14.24 23 19 23 C19 24.32 19 25.64 19 27 C12.73 27 6.46 27 0 27 C0 18.09 0 9.18 0 0 Z " fill="#A9793F" transform="translate(562,677)"/>
<path d="M0 0 C4.27876075 2.45632562 4.27876075 2.45632562 6 5 C6.80895451 8.1727081 6.75893972 10.82050252 6 14 C3.9375 17.0625 3.9375 17.0625 1 19 C-3.30274909 19.69151325 -5.20945312 19.51557405 -8.875 17.125 C-11.60044891 14.39955109 -11.94669869 13.56499391 -12.3125 9.6875 C-11.95124058 5.42463889 -10.98007946 3.98007946 -8 1 C-5.09704195 -0.45147903 -3.22738221 -0.37239025 0 0 Z " fill="#EAE6DE" transform="translate(458,681)"/>
<path d="M0 0 C1.70884005 1.62339805 3.37446717 3.29319053 5 5 C8.16701423 6.33563611 8.16701423 6.33563611 11 7 C11 7.33 11 7.66 11 8 C6.38 8 1.76 8 -3 8 C-2.67 9.32 -2.34 10.64 -2 12 C0.97 12.495 0.97 12.495 4 13 C3.6875 14.875 3.6875 14.875 3 17 C-0.51253146 19.34168764 -1.86469356 19.49623677 -6 19 C-8.69990662 17.20006226 -10.5418865 15.916227 -12 13 C-12.39447548 8.81855989 -12.45035186 6.69053952 -10.125 3.125 C-6.81702459 -0.18297541 -4.63953877 -0.54582809 0 0 Z " fill="#EDE9E1" transform="translate(416,681)"/>
<path d="M0 0 C9 0 9 0 12.0625 2.125 C14.35373893 5.52490293 14.66956671 6.98259975 14 11 C12.63717556 14.1560145 11.68648902 15.6103711 8.6875 17.3125 C6 18 6 18 0 18 C0 12.06 0 6.12 0 0 Z " fill="#EAE5DC" transform="translate(526,682)"/>
<path d="M0 0 C1.65 0 3.3 0 5 0 C5 7.59 5 15.18 5 23 C8.96 23 12.92 23 17 23 C17 24.32 17 25.64 17 27 C11.39 27 5.78 27 0 27 C0 18.09 0 9.18 0 0 Z " fill="#A4763D" transform="translate(486,677)"/>
<path d="M0 0 C-1.11117187 0.54527344 -2.22234375 1.09054687 -3.3671875 1.65234375 C-13.88129179 6.93540335 -23.00954463 12.217759 -30 22 C-29.38511719 21.62746094 -28.77023437 21.25492187 -28.13671875 20.87109375 C-27.32847656 20.39800781 -26.52023437 19.92492187 -25.6875 19.4375 C-24.88699219 18.96183594 -24.08648437 18.48617188 -23.26171875 17.99609375 C-21 17 -21 17 -18 18 C-20.4335567 19.3410005 -22.87135301 20.67294856 -25.3125 22 C-26.00279297 22.3815625 -26.69308594 22.763125 -27.40429688 23.15625 C-32.66015625 26 -32.66015625 26 -36 26 C-35.14170412 19.85122456 -29.54224548 15.77940438 -25 12 C-6.12032793 -2.04010931 -6.12032793 -2.04010931 0 0 Z " fill="#92612D" transform="translate(334,356)"/>
<path d="M0 0 C0 0.33 0 0.66 0 1 C3.96 1.33 7.92 1.66 12 2 C12 2.33 12 2.66 12 3 C10.72125 3.06058594 9.4425 3.12117188 8.125 3.18359375 C6.4166589 3.26807216 4.70832599 3.35271641 3 3.4375 C2.16082031 3.47681641 1.32164062 3.51613281 0.45703125 3.55664062 C-4.74013458 3.81851332 -9.84457153 4.2899352 -15 5 C-15 4.01 -15 3.02 -15 2 C-9.77487721 0.53329887 -5.4185766 -0.22577402 0 0 Z " fill="#AF8343" transform="translate(359,348)"/>
<path d="M0 0 C0 0.66 0 1.32 0 2 C-0.58700684 1.93433838 -1.17401367 1.86867676 -1.77880859 1.80102539 C-8.39006976 1.09641946 -14.98311073 0.70796412 -21.625 0.4375 C-22.62917969 0.39431641 -23.63335938 0.35113281 -24.66796875 0.30664062 C-27.11188383 0.20190141 -29.55587617 0.09972744 -32 0 C-32 -0.33 -32 -0.66 -32 -1 C-28.85483435 -1.2000026 -25.70887688 -1.38264359 -22.5625 -1.5625 C-21.68400391 -1.61857422 -20.80550781 -1.67464844 -19.90039062 -1.73242188 C-13.12348801 -2.10752719 -6.49462928 -2.16487643 0 0 Z " fill="#AC7F3F" transform="translate(682,351)"/>
<path d="M0 0 C3.96 0 7.92 0 12 0 C12 1.65 12 3.3 12 5 C8.04 5 4.08 5 0 5 C0.66 4.01 1.32 3.02 2 2 C1.34 1.34 0.68 0.68 0 0 Z " fill="#B0854F" transform="translate(567,688)"/>
<path d="M0 0 C4.75 0.75 4.75 0.75 7 3 C6.01 4.485 6.01 4.485 5 6 C1.04 5.67 -2.92 5.34 -7 5 C-7 4.67 -7 4.34 -7 4 C-4.69 3.34 -2.38 2.68 0 2 C0 1.34 0 0.68 0 0 Z " fill="#B68C52" transform="translate(533,677)"/>
<path d="M0 0 C5.47932789 1.54545146 10.11429181 4.15543212 15 7 C15.33 6.34 15.66 5.68 16 5 C16.33 6.32 16.66 7.64 17 9 C12.6007204 8.41234113 9.48108589 6.76040283 5.6875 4.5 C4.61886719 3.8709375 3.55023437 3.241875 2.44921875 2.59375 C1.23685547 1.80484375 1.23685547 1.80484375 0 1 C0 0.67 0 0.34 0 0 Z " fill="#906232" transform="translate(710,373)"/>
<path d="M0 0 C3.63 0 7.26 0 11 0 C6.85035583 3.11223313 4.99162787 3.52003578 0 4 C0 2.68 0 1.36 0 0 Z " fill="#A37135" transform="translate(414,690)"/>
<path d="M0 0 C0.33 1.32 0.66 2.64 1 4 C-1.64 3.67 -4.28 3.34 -7 3 C-7 2.34 -7 1.68 -7 1 C-3.535 0.505 -3.535 0.505 0 0 Z " fill="#B6874C" transform="translate(581,677)"/>
<path d="M0 0 C1.2380014 3.57644848 0.74926071 6.33694766 0 10 C-0.66 9.67 -1.32 9.34 -2 9 C-2.25 3.375 -2.25 3.375 0 0 Z " fill="#E4D0AE" transform="translate(513,469)"/>
<path d="M0 0 C0.33 0.66 0.66 1.32 1 2 C0.0625 4.625 0.0625 4.625 -1 7 C-2.32 6.67 -3.64 6.34 -5 6 C-3.35 4.02 -1.7 2.04 0 0 Z " fill="#966A39" transform="translate(544,617)"/>
<path d="M0 0 C0.33 0 0.66 0 1 0 C1.36923077 5.53846154 1.36923077 5.53846154 -0.5 7.875 C-1.2425 8.431875 -1.2425 8.431875 -2 9 C-2.125 5.625 -2.125 5.625 -2 2 C-1.34 1.34 -0.68 0.68 0 0 Z " fill="#EEEBE4" transform="translate(513,463)"/>
</svg>
